<svg width="123" height="26" viewBox="0 0 123 26" fill="none" xmlns="http://www.w3.org/2000/svg">
<path d="M20 16.3592C20 19.0801 20.8977 21.3643 22.7264 23.2119C24.5552 25.0594 26.8826 26 29.7088 26C32.535 26 34.8625 25.0594 36.6912 23.2119C38.5199 21.3643 39.4176 19.0801 39.4176 16.3592C39.4176 13.6718 38.5199 11.3876 36.6912 9.54005C34.8625 7.65891 32.535 6.71835 29.7088 6.71835C26.8826 6.71835 24.5552 7.65891 22.7264 9.54005C20.8977 11.3876 20 13.6718 20 16.3592ZM26.1179 20.0879C25.1536 19.0465 24.6882 17.8036 24.6882 16.3592C24.6882 14.9147 25.1536 13.6718 26.1179 12.6641C27.0821 11.6563 28.2791 11.1525 29.7088 11.1525C31.1385 11.1525 32.3023 11.6563 33.2665 12.6641C34.2307 13.6718 34.7295 14.9147 34.7295 16.3592C34.7295 17.8036 34.2307 19.0465 33.2665 20.0879C32.3023 21.0956 31.1385 21.5995 29.7088 21.5995C28.2791 21.5995 27.0821 21.0956 26.1179 20.0879Z" fill="#1D272E"/>
<path d="M47.4073 25.5297V15.7209C47.4073 13 49.0698 11.0853 51.5635 11.0853C53.8577 11.0853 55.3872 12.6977 55.3872 15.6202V25.5297H60.0753V14.3437C60.0753 11.8915 59.3771 10.0103 58.0139 8.70026C56.6507 7.39018 54.9549 6.71835 52.9932 6.71835C50.433 6.71835 48.2718 7.99483 47.3076 9.77519V7.22222H42.7192V25.5297H47.4073Z" fill="#1D272E"/>
<path d="M70.1359 26C72.2971 26 74.0593 25.4625 75.356 24.354C76.686 23.2455 77.351 21.8346 77.351 20.1214C77.351 18.1059 76.3202 16.5607 74.292 15.4858C73.7933 15.2171 72.3303 14.6124 69.9364 13.7054C68.8724 13.3359 68.3404 12.7984 68.3404 12.0258C68.3404 11.186 69.1716 10.4806 70.4019 10.4806C71.8981 10.4806 73.2945 11.0853 74.558 12.2946L76.8855 9.23773C75.223 7.49096 73.0951 6.61757 70.5349 6.61757C68.5066 6.61757 66.8442 7.12145 65.614 8.16279C64.3837 9.20413 63.752 10.5142 63.752 12.1266C63.752 14.2765 64.7827 15.8553 66.8774 16.8631C67.2764 17.0646 68.0412 17.4005 69.2049 17.8372C70.3686 18.2739 71.0668 18.5426 71.3661 18.677C72.2306 19.0801 72.6628 19.6176 72.6628 20.2558C72.6628 21.2972 71.5988 22.0362 70.1691 22.0362C68.3404 22.0362 66.4452 21.062 65.1485 19.4832L62.6548 22.4729C64.4835 24.8243 66.9772 26 70.1359 26Z" fill="#1D272E"/>
<path d="M88.6589 25.9664C93.8458 25.9664 96.9712 22.9432 96.9712 17.8036V7.22222H92.283V17.8036C92.283 20.1214 90.9198 21.6331 88.6589 21.6331C86.3979 21.6331 85.0347 20.1214 85.0347 17.8036V7.22222H80.3465V17.8036C80.3465 22.9432 83.5052 25.9664 88.6589 25.9664Z" fill="#1D272E"/>
<path d="M105.691 0H101.003V25.5297H105.691V0Z" fill="#1D272E"/>
<path d="M121.604 20.7261C120.506 21.3643 119.476 21.6667 118.578 21.6667C116.882 21.6667 116.018 20.5917 116.018 18.4419V11.186H122.003V7.22222H116.018V0.739018H111.363V7.22222H108.37V11.186H111.329V18.7442C111.329 23.4806 113.491 25.9664 117.647 25.9664C119.742 25.9664 121.504 25.4625 123 24.4548L121.604 20.7261Z" fill="#1D272E"/>
<path d="M9.51005 26C13.1956 26 16.3876 24.1366 17.9342 21.2084L14.1828 18.979C13.3931 20.5762 11.4845 21.7075 9.60878 21.7075C8.19379 21.7075 6.97623 21.2084 6.02194 20.2434C5.06764 19.2452 4.60695 18.014 4.60695 16.5166C4.60695 15.0525 5.10055 13.8214 6.05485 12.8564C7.00914 11.8581 8.22669 11.359 9.7075 11.359C11.649 11.359 13.1956 12.2907 14.2815 14.1208L18 12.0578C16.5192 8.83012 13.2943 7 9.64168 7C6.8117 7 4.50823 7.89842 2.69835 9.69527C0.888483 11.4588 0 13.7548 0 16.5166C0 19.2785 0.888483 21.5744 2.66545 23.338C4.44241 25.1016 6.71298 26 9.51005 26Z" fill="#387EF9"/>
</svg>
